<svg xmlns="http://www.w3.org/2000/svg" xmlns:xlink="http://www.w3.org/1999/xlink" version="1.1" x="0px" y="0px" viewBox="0 0 100 125" enable-background="new 0 0 100 100" xml:space="preserve"><path d="M85.075,70.946L69.288,67.27c-1.795-0.366-3.326,0.14-4.763,1.188c-2.081,1.521-4.827,4.271-6.595,6.683  c-0.696,0.956-1.364,0.88-2.364,0.56c-4.814-1.56-13.443-6.725-18.993-12.279C31.028,57.869,25.859,49.247,24.3,44.434  c-0.327-1.007-0.398-1.662,0.557-2.36c2.412-1.771,5.165-4.514,6.684-6.596c1.055-1.436,1.557-2.972,1.191-4.764l-3.682-15.79  c-0.334-1.439-0.885-3.019-2.244-3.75c-6.012-3.264-9.984-3.53-12.799-1.562c-3.527,2.474-8.387,7.502-9.928,12.764  C1.278,31.929,8.063,59.998,24.03,75.962c15.975,15.975,44.033,22.762,53.594,19.959c5.268-1.542,10.283-6.401,12.756-9.924  c1.98-2.823,1.709-6.791-1.555-12.805C88.089,71.837,86.515,71.284,85.075,70.946z M80.288,52.209c1.794,0,3.248-1.454,3.248-3.249  c0-17.919-14.578-32.497-32.498-32.497c-1.794,0-3.248,1.454-3.248,3.249c0,1.797,1.454,3.25,3.248,3.25  c14.337,0,25.998,11.662,25.998,25.998C77.036,50.755,78.489,52.209,80.288,52.209z M51.038,3.464c-1.794,0-3.248,1.453-3.248,3.249  c0,1.797,1.453,3.25,3.248,3.25c21.506,0,38.998,17.492,38.998,38.997c0,1.795,1.453,3.249,3.25,3.249  c1.795,0,3.248-1.454,3.249-3.249C96.534,23.874,76.126,3.464,51.038,3.464z M51.039,29.46c-1.794,0-3.248,1.453-3.248,3.247  c-0.001,1.799,1.454,3.251,3.248,3.252c7.167,0,12.999,5.834,12.999,13.001c0,1.796,1.453,3.249,3.252,3.25  c1.794,0,3.247-1.454,3.248-3.249C70.538,38.206,61.793,29.459,51.039,29.46z"/></svg>
